<?xml version="1.0" encoding="UTF-8" standalone="no"?>
<!-- Created with Inkscape (http://www.inkscape.org/) -->

<svg
   xmlns:dc="http://purl.org/dc/elements/1.1/"
   xmlns:cc="http://creativecommons.org/ns#"
   xmlns:rdf="http://www.w3.org/1999/02/22-rdf-syntax-ns#"
   xmlns:svg="http://www.w3.org/2000/svg"
   xmlns="http://www.w3.org/2000/svg"
   version="1.1"
   width="1052.3625"
   height="744.09998"
   id="svg2"
   xml:space="preserve"><metadata
     id="metadata8"><rdf:RDF><cc:Work
         rdf:about=""><dc:format>image/svg+xml</dc:format><dc:type
           rdf:resource="http://purl.org/dc/dcmitype/StillImage" /><dc:title></dc:title></cc:Work></rdf:RDF></metadata><defs
     id="defs6"><clipPath
       id="clipPath16"><path
         d="m 0,595.28 841.89,0 L 841.89,0 0,0 0,595.28 z"
         id="path18" /></clipPath></defs><g
     transform="matrix(1.25,0,0,-1.25,0,744.1)"
     id="g10"><g
       id="g12"><g
         clip-path="url(#clipPath16)"
         id="g14"><g
           transform="translate(448.2021,344.4912)"
           id="g20"><path
             d="m 0,0 c -0.473,0.996 -0.61,1.947 -1.274,2.994 -1.815,2.858 -3.71,7.423 -4.674,10.679 -0.758,2.511 -0.826,4.916 -1.073,7.543 -0.277,2.98 -0.428,5.934 -0.699,8.893 -0.263,2.834 -1.158,5.394 -1.259,8.262 -0.102,2.97 0.574,6.009 0.32,9.073 -0.274,3.266 -0.703,6.372 -0.855,9.648 -0.159,3.437 -1.061,6.442 -0.887,10.013 0.13,2.583 -0.037,6.322 1.021,8.691 1.061,-2.057 0.963,-4.398 2.592,-6.319 1.02,-1.224 1.785,-1.399 1.912,-3.089 0.133,-1.928 -0.924,-2.372 -1.473,-3.886 -0.653,-1.787 0.801,-2.557 1.653,-3.8 0.639,-0.955 1.001,-2.339 2.668,-1.791 2.529,0.831 2.053,6.033 1.605,8.056 -0.292,1.275 -1.158,2.296 -1.465,3.528 -0.328,1.319 -0.289,2.532 -0.804,3.835 -1.083,2.712 -1.235,5.158 -2.682,7.83 -1.454,2.687 -2.145,4.248 -2.271,7.352 -0.097,2.386 -0.299,4.706 -2.356,6.26 -2.34,1.772 -7.193,-0.003 -8.525,2.98 -1.765,3.924 0.884,8.409 -3.764,11.146 -0.982,0.575 -2.025,0.876 -3.031,0.851 -1.282,-0.035 -2.513,-0.595 -3.484,-1.762 -1.509,-1.815 -1.375,-3.965 -0.841,-6.104 0.271,-1.082 0.318,-2.354 0.714,-3.406 0.567,-1.505 3.57,-4.006 1.3,-5.581 -0.974,-0.67 -2.44,-0.634 -3.479,-1.515 -3.884,-3.291 -6.963,-7.524 -8.154,-12.556 -0.331,-1.409 -0.476,-2.144 -1.212,-3.436 -0.7,-1.249 -1.028,-2.431 -0.426,-3.927 0.779,-1.937 3.385,-3.824 5.013,-5.183 1.801,-1.499 5.252,-3.224 5.89,-5.501 0.394,-1.403 -0.267,-3.033 0.224,-4.428 0.386,-1.117 1.448,-2.284 2.05,-3.3 1.231,-2.094 2.959,-3.942 4.183,-5.99 2.339,-3.919 -2.154,-2.44 -3.389,-0.054 -0.859,1.646 -1.981,6.919 -4.854,3.236 -0.943,-1.213 -0.469,-2.974 -0.878,-4.293 -0.469,-1.514 -1.999,-2.304 -2.464,-3.79 -0.993,-3.155 1.173,-6.646 3.934,-3.773 2.083,2.172 3.576,2.943 6.186,1.081 2.631,-1.866 6.107,-4.821 8.052,-7.398 1.793,-2.369 1.035,-5.374 1.205,-8.106 0.17,-2.813 1.798,-5.421 3.39,-7.68 1.424,-2.018 3.215,-4.328 3.561,-6.792 0.225,-1.526 -0.554,-2.834 -0.357,-4.294 0.188,-1.359 1.054,-2.11 1.831,-3.165 1.728,-2.355 2.216,-4.74 5.655,-4.876 1.227,-0.045 3.421,-0.233 3.216,1.439 C 1.429,-1.444 0.411,-0.841 0,0 m -30.205,66.064 c -0.285,-0.704 -4.588,5.079 -4.775,5.334 -1.177,1.59 -0.708,1.798 0.285,3.303 0.585,0.875 1.552,3.402 3.05,2.55 1.252,-0.718 0.967,-3.688 1.252,-4.921 0.466,-1.938 0.992,-4.243 0.188,-6.266"
             id="path22"
             style="fill:#373535;fill-opacity:1;fill-rule:nonzero;stroke:none" /></g><g
           transform="translate(511.4961,357.0615)"
           id="g24"><path
             d="M 0,0 -29.699,-5.717 -35.409,23.975 0,0 z"
             id="path26"
             style="fill:#58a3b3;fill-opacity:1;fill-rule:nonzero;stroke:none" /></g><g
           transform="translate(429.6729,318.5698)"
           id="g28"><path
             d="m 0,0 c -42.072,0 -76.302,34.229 -76.302,76.305 0,42.072 34.23,76.3 76.302,76.3 42.068,0 76.298,-34.228 76.298,-76.3 0,-9.806 -1.855,-19.394 -5.515,-28.498 -1.057,-2.641 -4.071,-3.918 -6.702,-2.858 -2.643,1.061 -3.92,4.06 -2.859,6.702 3.166,7.877 4.772,16.173 4.772,24.654 0,36.388 -29.606,65.994 -65.994,65.994 -36.392,0 -65.998,-29.606 -65.998,-65.994 0,-36.391 29.606,-65.999 65.998,-65.999 10.845,0 21.189,2.559 30.757,7.606 2.53,1.334 5.631,0.365 6.967,-2.151 1.327,-2.519 0.36,-5.633 -2.156,-6.962 C 24.657,3.042 12.357,0 0,0"
             id="path30"
             style="fill:#58a3b3;fill-opacity:1;fill-rule:nonzero;stroke:none" /></g><g
           transform="translate(382.6919,249.3184)"
           id="g32"><path
             d="m 0,0 -10.767,19.749 c 5.556,1.715 7.887,5.901 8.644,7.887 0.816,2.259 0.885,4.657 0.885,5.417 0,1.576 -0.134,5.759 -2.949,9.462 -4.317,5.692 -10.831,5.897 -13.025,5.897 l -19.815,0 0,-48.412 8.983,0 0,17.967 8.157,0 L -10.355,0 0,0 z m -10.427,33.12 c 0,-3.911 -2.263,-5.694 -3.631,-6.448 -2.194,-1.162 -5.486,-1.162 -10.766,-1.162 l -3.22,0 0,15.083 7.338,0 c 3.836,0 5.688,-0.413 7.265,-1.441 2.88,-1.922 3.014,-4.799 3.014,-6.032 M 43.199,0 l 0,8.16 -27.225,0 0,12.957 23.384,0 0,7.821 -23.384,0 0,11.382 25.51,0 0,8.092 -34.424,0 L 7.06,0 43.199,0 z m 42.169,48.412 -9.329,0 -10.561,-38.19 -10.832,38.19 -9.531,0 L 59.378,0 l 12.21,0 13.78,48.412 z m 50.327,-24.205 c 0.065,9.254 -3.497,14.881 -6.035,17.754 -2.263,2.612 -7.818,7.684 -17.144,7.684 -10.351,0 -18.644,-6.447 -21.807,-16.114 -1.368,-4.116 -1.436,-7.815 -1.436,-9.396 0,-6.717 1.92,-12.751 6.445,-17.895 4.524,-5.208 9.739,-7.477 16.593,-7.477 4.114,0 6.922,0.826 8.435,1.378 4.316,1.577 7.134,4.385 8.232,5.55 6.37,6.926 6.717,15.502 6.717,18.516 m -9.124,-0.96 c -0.202,-9.12 -4.866,-13.231 -8.435,-14.881 -2.393,-1.097 -4.588,-1.162 -5.554,-1.162 -1.228,0 -4.176,0.134 -7.125,2.054 -6.796,4.457 -6.854,13.368 -6.854,15.22 0,9.053 4.244,13.578 7.673,15.429 0.961,0.479 3.155,1.446 6.176,1.446 4.872,0 8.705,-2.265 11.242,-6.381 2.194,-3.493 2.948,-7.744 2.877,-11.725 M 172.79,0 l 0,8.229 -19.205,0 0,40.183 -9.113,0 0,-48.412 28.318,0 z m 46.284,20.507 0,27.905 -9.056,0 0,-29.283 c 0,-3.22 -0.064,-4.523 -0.613,-6.1 -1.989,-5.486 -8.64,-5.486 -9.802,-5.486 -6.45,0 -9.061,2.884 -9.947,5.761 -0.484,1.443 -0.484,2.465 -0.484,5.348 l 0,29.76 -9.114,0 0,-28.8 c 0,-5.142 0,-7.406 0.751,-9.878 0.827,-2.602 2.472,-4.59 3.09,-5.208 3.97,-4.385 9.662,-5.763 15.353,-5.763 11.864,0 17.418,6.239 18.998,11.112 0.892,2.742 0.824,5.078 0.824,10.632 m 42.582,19.749 0,8.156 -35.59,0 0,-8.156 13.17,0 0,-40.256 9.048,0 0,40.256 13.372,0 z m 15.836,8.156 -8.918,0 0,-48.412 8.918,0 0,48.412 z m 55.334,-24.205 c 0.071,9.254 -3.494,14.881 -6.039,17.754 -2.263,2.612 -7.811,7.684 -17.141,7.684 -10.351,0 -18.648,-6.447 -21.799,-16.114 -1.379,-4.116 -1.444,-7.815 -1.444,-9.396 0,-6.717 1.924,-12.751 6.446,-17.895 4.526,-5.208 9.734,-7.477 16.595,-7.477 4.108,0 6.928,0.826 8.434,1.378 4.322,1.577 7.129,4.385 8.226,5.55 6.381,6.926 6.722,15.502 6.722,18.516 m -9.118,-0.96 c -0.207,-9.12 -4.873,-13.231 -8.434,-14.881 -2.405,-1.097 -4.598,-1.162 -5.555,-1.162 -1.234,0 -4.183,0.134 -7.136,2.054 -6.785,4.457 -6.854,13.368 -6.854,15.22 0,9.053 4.256,13.578 7.677,15.429 0.957,0.479 3.158,1.446 6.175,1.446 4.866,0 8.703,-2.265 11.247,-6.381 2.194,-3.493 2.945,-7.744 2.88,-11.725 M 379.044,0 l 0,48.412 -8.919,0 1.097,-34.148 -21.463,34.148 -8.161,0 0,-48.412 8.851,0 L 349.9,33.944 371.083,0 l 7.961,0 z"
             id="path34"
             style="fill:#373535;fill-opacity:1;fill-rule:nonzero;stroke:none" /></g><g
           transform="translate(146.6831,249.3184)"
           id="g36"><path
             d="m 0,0 -16.526,48.412 -10.287,0 L -43.201,0 l 9.742,0 2.808,9.464 18.169,0 L -9.667,0 0,0 z m -14.877,17.418 -13.374,0 6.721,22.283 6.653,-22.283 z m 61.639,-3.908 -8.573,3.565 c -0.406,-1.231 -0.612,-1.786 -0.892,-2.4 -0.2,-0.343 -0.958,-1.779 -1.916,-2.948 -2.335,-2.884 -5.143,-4.389 -8.915,-4.389 -1.305,0 -4.185,0.205 -7.062,2.194 -1.373,0.895 -2.538,2.126 -3.496,3.563 -2.814,4.323 -2.88,10.08 -2.88,11.455 0,9.052 4.11,13.713 7.676,15.5 0.964,0.477 2.88,1.303 5.623,1.303 3.844,0.065 7.475,-1.717 9.328,-5.143 0.89,-1.652 1.164,-3.228 1.234,-3.841 l 8.984,2.33 c -0.825,2.531 -1.785,4.937 -3.36,7.262 -2.197,3.089 -7.065,7.684 -16.32,7.684 -10.63,0 -16.181,-6.033 -18.516,-9.389 C 3.221,33.874 3.221,26.95 3.221,24.344 c 0,-14.328 7.404,-20.915 12.892,-23.517 4.185,-1.925 8.09,-2.064 9.734,-2.064 9.74,0 15.016,5.348 17.278,8.232 1.65,2.129 2.608,4.042 3.637,6.515 m 38.191,26.746 0,8.156 -35.589,0 0,-8.156 13.169,0 0,-40.256 9.049,0 0,40.256 13.371,0 z m 15.841,8.156 -8.917,0 0,-48.412 8.917,0 0,48.412 z m 46.419,0 -9.328,0 -10.556,-38.19 -10.833,38.19 -9.534,0 L 121.228,0 l 12.2,0 13.785,48.412 z M 189.315,0 l 0,8.16 -27.226,0 0,12.957 23.385,0 0,7.821 -23.385,0 0,11.382 25.509,0 0,8.092 -34.424,0 0,-48.412 36.141,0 z"
             id="path38"
             style="fill:#58a3b3;fill-opacity:1;fill-rule:nonzero;stroke:none" /></g><g
           transform="translate(760.1299,232.2363)"
           id="g40"><path
             d="m 0,0 -654.48,0 c -1.424,0 -2.577,1.151 -2.577,2.577 0,1.422 1.153,2.573 2.577,2.573 L 0,5.15 C 1.426,5.15 2.577,3.999 2.577,2.577 2.577,1.151 1.426,0 0,0"
             id="path42"
             style="fill:#58a3b3;fill-opacity:1;fill-rule:nonzero;stroke:none" /></g><g
           transform="translate(208.2778,191.6572)"
           id="g44"><path
             d="m 0,0 c 0,2.859 -0.915,4.632 -1.486,5.603 -2.457,4.118 -7.374,5.204 -8.633,5.485 -1.023,0.285 -2.111,0.574 -3.141,0.802 l -4.452,1.086 c -2.347,0.567 -5.49,1.198 -7.031,3.309 -0.861,1.145 -0.973,2.401 -0.973,2.975 0,1.313 0.516,2.688 1.372,3.656 1.77,2.118 5.255,2.692 7.826,2.692 6.63,0 9.202,-3.324 10.003,-6.174 0.225,-0.802 0.339,-1.604 0.403,-2.401 l 5.424,0.339 c -0.345,2.062 -0.798,3.948 -1.884,5.774 -0.462,0.798 -1.371,2.17 -3.259,3.598 -3.144,2.401 -6.915,3.028 -10.798,3.028 -1.657,0 -6.686,0.113 -10.798,-3.308 -2.402,-2.004 -3.831,-4.686 -3.831,-7.887 0,-2.399 0.63,-6.059 5.484,-8.69 2.684,-1.488 5.943,-2.169 8.859,-2.798 l 3.483,-0.739 c 1.886,-0.405 4.001,-0.863 5.603,-2.116 0.912,-0.744 2.056,-1.886 2.056,-4.572 0,-5.545 -4.627,-7.146 -6.343,-7.602 -1.597,-0.457 -3.145,-0.457 -3.713,-0.457 -4.744,0 -7.429,1.717 -8.856,3.201 -2.572,2.689 -2.684,6.051 -2.742,7.259 L -33.2,1.314 c 0.115,-1.252 0.397,-4.912 2.798,-8.11 0.857,-1.144 2.001,-2.229 3.259,-3.023 4.229,-2.744 9.712,-2.809 11.026,-2.809 6.859,0 10.512,2.176 12.743,4.345 C -0.229,-5.196 0,-1.594 0,0 m 37.882,17.372 c 0,1.54 -0.287,6.8 -4.8,9.658 -2.686,1.711 -5.371,1.711 -8.515,1.711 l -17.427,0 0,-40.34 5.197,0 0,17.086 11.658,0 c 3.088,0 4.627,0.116 6.054,0.512 5.261,1.43 7.833,6.233 7.833,11.373 m -5.317,0.119 c 0,-3.147 -1.371,-6.056 -4.627,-6.916 -1.429,-0.343 -2.856,-0.289 -4.345,-0.289 l -11.256,0 0,13.831 12.458,0 c 1.202,0 2.057,0 3.257,-0.288 1.884,-0.513 3.433,-1.768 4.116,-3.656 0.397,-1.145 0.397,-2.28 0.397,-2.682 M 82.051,8.919 c 0,8.572 -3.885,16.169 -12.286,19.425 -2.514,0.97 -5.256,1.428 -7.996,1.428 -5.602,0 -11.488,-2.056 -15.317,-6.344 -4.916,-5.535 -5.03,-12.51 -5.03,-14.801 0,-8.735 3.604,-13.597 6.287,-16.111 5.2,-4.855 11.425,-5.144 13.883,-5.144 9.14,0 14.002,4.519 16.227,7.486 4.061,5.493 4.232,11.946 4.232,14.061 m -5.827,0 c 0.056,-9.658 -4.346,-14.343 -8.231,-16.115 -2.571,-1.145 -5.085,-1.201 -6.112,-1.201 -2.747,0 -4.4,0.519 -5.487,0.913 -0.742,0.288 -2.227,0.92 -3.886,2.342 -0.46,0.404 -1.597,1.544 -2.571,3.032 -1.081,1.772 -2.685,5.366 -2.685,10.683 0,3.717 0.856,8.117 3.085,11.318 1.543,2.223 4.856,5.479 11.432,5.54 2.168,0 7.596,-0.228 11.31,-5.316 3.145,-4.28 3.145,-9.771 3.145,-11.196 m 46.221,-20.518 -11.309,17.49 c 2.169,0.4 3.141,0.795 4.11,1.313 5.144,2.625 5.375,8.117 5.375,9.767 0,3.999 -1.375,6.399 -2.458,7.714 -1.717,2.059 -4.342,3.832 -9.943,4.056 -1.259,0.061 -2.572,0 -3.83,0 l -15.027,0 0,-40.34 5.257,0 0,17.147 10.399,0 11.032,-17.147 6.394,0 z m -7.141,28.57 c 0,-1.541 -0.341,-2.908 -1.257,-4.168 -2.056,-2.802 -5.654,-2.74 -8.684,-2.74 l -10.743,0 0,14.224 10.459,0 c 2.399,0 4.911,0.115 7.026,-1.141 3.088,-1.886 3.199,-5.027 3.199,-6.175 m 37.884,7.086 0,4.684 -29.542,0 0,-4.684 12.117,0 0,-35.656 5.367,0 0,35.656 12.058,0 z M 189.301,0 c 0,2.859 -0.916,4.632 -1.486,5.603 -2.455,4.118 -7.37,5.204 -8.626,5.485 -1.033,0.285 -2.115,0.574 -3.147,0.802 l -4.455,1.086 c -2.341,0.567 -5.482,1.198 -7.03,3.309 -0.855,1.145 -0.971,2.401 -0.971,2.975 0,1.313 0.517,2.688 1.372,3.656 1.775,2.118 5.258,2.692 7.828,2.692 6.626,0 9.2,-3.324 10.001,-6.174 0.228,-0.802 0.339,-1.604 0.4,-2.401 l 5.429,0.339 c -0.346,2.062 -0.801,3.948 -1.884,5.774 -0.458,0.798 -1.372,2.17 -3.256,3.598 -3.146,2.401 -6.918,3.028 -10.802,3.028 -1.66,0 -6.684,0.113 -10.802,-3.308 -2.396,-2.004 -3.826,-4.686 -3.826,-7.887 0,-2.399 0.628,-6.059 5.486,-8.69 2.685,-1.488 5.941,-2.169 8.857,-2.798 l 3.487,-0.739 c 1.884,-0.405 3.995,-0.863 5.598,-2.116 0.913,-0.744 2.057,-1.886 2.057,-4.572 0,-5.545 -4.628,-7.146 -6.345,-7.602 -1.603,-0.457 -3.141,-0.457 -3.714,-0.457 -4.743,0 -7.428,1.717 -8.853,3.201 -2.57,2.689 -2.689,6.051 -2.747,7.259 l -5.771,-0.749 c 0.119,-1.252 0.4,-4.912 2.804,-8.11 0.856,-1.144 1.996,-2.229 3.256,-3.023 4.226,-2.744 9.715,-2.809 11.029,-2.809 6.854,0 10.511,2.176 12.741,4.345 3.14,3.087 3.37,6.689 3.37,8.283 m 60.909,-11.599 0,40.34 -6.969,0 -12.454,-33.083 -12.345,33.083 -6.973,0 0,-40.34 5.259,0 -0.574,33.317 12.52,-33.317 4.161,0 12.748,33.829 -0.739,-33.829 5.366,0 z m 40.001,0 -14.689,40.34 -5.595,0 -15.371,-40.34 5.706,0 4.523,12.347 15.367,0 4.396,-12.347 5.663,0 z m -11.662,16.859 -12.054,0 6.172,16.854 5.882,-16.854 z M 326.209,0 c 0,2.859 -0.917,4.632 -1.491,5.603 -2.457,4.118 -7.366,5.204 -8.626,5.485 -1.024,0.285 -2.114,0.574 -3.139,0.802 l -4.457,1.086 c -2.347,0.567 -5.487,1.198 -7.028,3.309 -0.855,1.145 -0.97,2.401 -0.97,2.975 0,1.313 0.508,2.688 1.367,3.656 1.768,2.118 5.259,2.692 7.825,2.692 6.634,0 9.2,-3.324 10.001,-6.174 0.234,-0.802 0.347,-1.604 0.4,-2.401 l 5.433,0.339 c -0.344,2.062 -0.806,3.948 -1.892,5.774 -0.455,0.798 -1.371,2.17 -3.252,3.598 -3.14,2.401 -6.915,3.028 -10.798,3.028 -1.661,0 -6.688,0.113 -10.799,-3.308 -2.408,-2.004 -3.833,-4.686 -3.833,-7.887 0,-2.399 0.632,-6.059 5.493,-8.69 2.682,-1.488 5.937,-2.169 8.85,-2.798 l 3.49,-0.739 c 1.884,-0.405 3.995,-0.863 5.593,-2.116 0.918,-0.744 2.055,-1.886 2.055,-4.572 0,-5.545 -4.624,-7.146 -6.338,-7.602 -1.602,-0.457 -3.143,-0.457 -3.714,-0.457 -4.739,0 -7.431,1.717 -8.86,3.201 -2.566,2.689 -2.683,6.051 -2.736,7.259 l -5.775,-0.749 c 0.116,-1.252 0.405,-4.912 2.801,-8.11 0.858,-1.144 1.996,-2.229 3.256,-3.023 4.229,-2.744 9.712,-2.809 11.029,-2.809 6.854,0 10.518,2.176 12.74,4.345 3.14,3.087 3.375,6.689 3.375,8.283 m 38.11,0 c 0,2.859 -0.913,4.632 -1.487,5.603 -2.455,4.118 -7.367,5.204 -8.623,5.485 -1.032,0.285 -2.122,0.574 -3.143,0.802 l -4.458,1.086 c -2.345,0.567 -5.489,1.198 -7.03,3.309 -0.856,1.145 -0.971,2.401 -0.971,2.975 0,1.313 0.512,2.688 1.367,3.656 1.773,2.118 5.26,2.692 7.833,2.692 6.626,0 9.199,-3.324 9.993,-6.174 0.239,-0.802 0.354,-1.604 0.405,-2.401 l 5.427,0.339 c -0.335,2.062 -0.8,3.948 -1.886,5.774 -0.453,0.798 -1.369,2.17 -3.256,3.598 -3.144,2.401 -6.908,3.028 -10.795,3.028 -1.66,0 -6.692,0.113 -10.799,-3.308 -2.404,-2.004 -3.833,-4.686 -3.833,-7.887 0,-2.399 0.632,-6.059 5.482,-8.69 2.689,-1.488 5.949,-2.169 8.858,-2.798 l 3.493,-0.739 c 1.885,-0.405 3.995,-0.863 5.598,-2.116 0.913,-0.744 2.05,-1.886 2.05,-4.572 0,-5.545 -4.627,-7.146 -6.337,-7.602 -1.603,-0.457 -3.141,-0.457 -3.715,-0.457 -4.745,0 -7.428,1.717 -8.857,3.201 -2.573,2.689 -2.688,6.051 -2.739,7.259 l -5.778,-0.749 c 0.115,-1.252 0.404,-4.912 2.8,-8.11 0.863,-1.144 2.003,-2.229 3.259,-3.023 4.227,-2.744 9.712,-2.809 11.027,-2.809 6.861,0 10.516,2.176 12.747,4.345 3.14,3.087 3.368,6.689 3.368,8.283 m 39.029,-11.599 -14.689,40.34 -5.598,0 -15.379,-40.34 5.717,0 4.519,12.347 15.372,0 4.395,-12.347 5.663,0 z m -11.661,16.859 -12.055,0 6.168,16.854 5.887,-16.854 z m 54.683,-16.859 0,21.32 -18.739,0 0,-4.516 14.058,0 c 0.051,-2.114 -0.062,-7.084 -5.032,-10.514 -3.599,-2.461 -7.427,-2.631 -8.918,-2.631 -6.907,0 -10.106,3.429 -11.765,5.718 -3.028,4.285 -3.144,9.141 -3.144,10.91 0,6.23 2.4,10.059 4.115,12.001 1.595,1.827 4.797,4.627 10.918,4.627 1.483,0 6.852,-0.173 10.34,-4.17 1.259,-1.37 1.999,-2.862 2.569,-4.511 l 5.598,1.423 c -0.512,1.086 -1.029,2.057 -1.65,3.035 -3.262,4.905 -7.55,6.793 -9.604,7.478 -3.2,1.148 -6.229,1.201 -7.431,1.201 -8.511,0 -12.969,-3.828 -15.31,-6.402 -5.143,-5.771 -5.491,-12.679 -5.491,-15.31 0,-11.485 6.805,-16.8 10.861,-18.742 2.91,-1.372 5.938,-1.946 9.201,-1.946 6.914,0 11.14,2.692 13.137,4.688 0.917,0.857 1.259,1.545 1.606,2.003 l 0,-5.662 4.681,0 z m 37.027,0 0,4.688 -23.315,0 0,13.772 19.663,0 0,4.686 -19.663,0 0,12.456 22.631,0 0,4.738 -27.775,0 0,-40.34 28.459,0 z"
             id="path46"
             style="fill:#373535;fill-opacity:1;fill-rule:nonzero;stroke:none" /></g></g></g></g></svg>